<?xml version="1.0" encoding="UTF-8" standalone="no"?>
<!-- Created with Inkscape (http://www.inkscape.org/) -->

<svg
   width="163.60246mm"
   height="160.05406mm"
   viewBox="0 0 163.60246 160.05406"
   version="1.1"
   id="svg1"
   xml:space="preserve"
   sodipodi:docname="logo.svg"
   inkscape:export-filename="C:\Users\oskrp\Desktop\logo.png"
   inkscape:export-xdpi="96"
   inkscape:export-ydpi="96"
   inkscape:version="1.4 (86a8ad7, 2024-10-11)"
   xmlns:inkscape="http://www.inkscape.org/namespaces/inkscape"
   xmlns:sodipodi="http://sodipodi.sourceforge.net/DTD/sodipodi-0.dtd"
   xmlns="http://www.w3.org/2000/svg"
   xmlns:svg="http://www.w3.org/2000/svg"><sodipodi:namedview
     id="namedview1"
     pagecolor="#ffffff"
     bordercolor="#000000"
     borderopacity="0.25"
     inkscape:showpageshadow="2"
     inkscape:pageopacity="0.0"
     inkscape:pagecheckerboard="0"
     inkscape:deskcolor="#d1d1d1"
     inkscape:document-units="mm"
     inkscape:zoom="0.47165487"
     inkscape:cx="-32.863013"
     inkscape:cy="-202.47856"
     inkscape:window-width="1920"
     inkscape:window-height="1009"
     inkscape:window-x="-8"
     inkscape:window-y="-8"
     inkscape:window-maximized="1"
     inkscape:current-layer="layer1" /><defs
     id="defs1" /><g
     id="layer1"
     transform="translate(-23.274273,-41.172938)"><path
       style="display:inline;fill:#253129;stroke:none"
       d="m 52.652086,72.495837 c -5.092664,9.71969 -7.861148,20.67842 -9.453137,31.485413 -0.544532,3.69648 -0.880728,7.40806 -1.319243,11.1125 -0.177242,1.49733 0.0273,3.33915 -0.499767,4.7625 -0.506986,1.3691 -2.022777,2.39939 -2.99167,3.43958 -1.991731,2.13831 -3.844533,4.4639 -5.488881,6.87917 -6.041644,8.87418 -9.877553,19.33018 -9.612171,30.1625 0.160318,6.54375 2.565808,13.25166 7.150282,17.99065 7.819617,8.08318 22.941254,10.4948 32.79792,4.76351 0.770528,5.72199 2.091377,15.79184 8.466666,17.71565 3.492107,1.05378 6.654955,-0.109 10.054166,-0.94787 5.269228,-1.30037 10.576615,-2.51416 15.874999,-3.69091 11.75445,-2.61063 23.43512,-5.55144 35.18958,-8.16207 4.97864,-1.10573 10.02274,-2.80078 15.08125,-3.45878 2.66092,-0.3461 5.75365,1.24476 8.46667,1.43073 9.05397,0.62061 18.54353,-1.99323 24.48334,-9.23675 10.15939,-12.38923 6.06029,-31.53657 -1.91231,-43.92083 -2.04814,-3.18149 -4.3361,-6.13379 -6.80853,-8.99583 -1.19731,-1.38598 -3.14238,-2.67676 -3.66476,-4.49792 -0.93081,-3.24497 -0.62306,-7.21551 -1.02628,-10.58333 -0.82411,-6.88335 -2.12677,-13.671111 -3.89709,-20.372914 -0.92702,-3.509314 -2.15909,-6.98092 -3.58331,-10.318749 -0.58695,-1.375595 -2.15076,-3.517583 -2.11748,-5.016667 0.0203,-0.914722 1.11004,-1.569688 1.70142,-2.137499 1.48619,-1.426996 2.88382,-2.937967 3.88606,-4.752084 3.85471,-6.977238 2.94601,-15.783629 -1.62099,-22.224789 -1.48542,-2.094994 -4.74901,-4.000127 -6.92325,-1.552392 -1.08102,1.216996 -1.11104,3.028094 -1.77757,4.462599 -1.45823,3.13839 -6.04191,8.405333 -9.96842,8.215971 -1.49477,-0.07209 -3.05445,-1.839374 -4.23333,-2.652971 -2.76563,-1.908685 -5.71018,-3.503872 -8.73125,-4.965443 -7.38451,-3.572585 -15.9227,-5.156968 -24.07708,-5.356181 -8.854251,-0.216298 -18.449321,1.48145 -26.458335,5.356181 -3.041772,1.471599 -5.923274,3.077703 -8.73125,4.958903 -1.199087,0.803326 -2.766134,2.511329 -4.233333,2.687465 -3.878566,0.46562 -8.681769,-5.444225 -9.934124,-8.508508 -1.106844,-2.708249 -2.009203,-6.616408 -5.940875,-5.024629 -2.774314,1.12322 -4.39563,5.028246 -5.290649,7.670462 -2.692431,7.948432 -1.208954,19.123169 7.142732,23.283332"
       id="path1" /><path
       style="display:inline;fill:#ffffff;fill-opacity:1;stroke:none"
       d="m 51.858336,46.831255 c 1.477688,5.119552 6.422775,10.103275 11.377083,11.906249 -1.758703,2.526364 -4.039514,4.692075 -5.912292,7.14375 -0.565656,0.740507 -1.264749,2.245082 -2.300409,2.375339 C 53.142487,68.493094 51.10298,65.125858 50.35372,63.764587 47.767961,59.066732 47.825709,50.82137 51.858336,46.831255"
       id="path2" /><path
       style="display:inline;fill:#bcff00;fill-opacity:1;stroke:none"
       d="m 164.83541,150.01875 c 0.40576,-1.96693 1.36412,-4.63441 0.59735,-6.61357 -0.71186,-1.83743 -3.02598,-2.27059 -3.84053,-0.25499 -0.52553,1.30044 -0.46276,3.09248 -0.72557,4.48731 -3.51629,-1.14378 -7.69186,-2.0071 -11.37708,-1.32292 -0.68712,-3.32896 -2.41329,-7.17616 -2.3296,-10.58333 0.0544,-2.21495 1.4438,-4.59193 1.7247,-6.87917 0.71592,-5.82942 -1.96954,-12.07901 -6.80343,-15.40543 -4.21864,-2.90304 -9.17543,-1.61686 -13.75833,-0.50387 -6.25418,1.51889 -12.88241,3.00974 -19.31459,3.45021 -8.50065,0.58214 -16.899247,-0.90356 -25.135412,-2.85612 -6.73792,-1.59737 -13.323234,-3.71177 -18.761532,2.08707 -2.191177,2.33643 -3.670512,5.53414 -3.972827,8.73023 -0.121359,1.28303 0.4,4.97384 -0.292755,5.8931 -0.988683,1.31195 -3.662349,1.64608 -4.939306,2.91776 -4.211064,4.19364 -2.073113,8.69747 -1.402329,13.67872 l -5.820833,0.79375 c -0.108125,-1.37002 0.06952,-3.54011 -0.576531,-4.75087 -0.967318,-1.81286 -3.06325,-1.18955 -3.724991,0.51855 -0.780588,2.01488 0.186019,4.61965 0.597356,6.61357 -1.357266,0.97586 -3.19752,2.13063 -3.916282,3.70417 -0.526422,1.15244 0.512266,2.62978 1.799615,2.49292 1.73192,-0.18415 3.715713,-2.41024 5.291667,-3.21807 4.547283,-2.33098 10.433422,-2.55497 15.345832,-1.29149 1.664853,0.4282 4.594002,1.50572 4.645517,3.60414 0.05726,2.33196 -2.448599,2.4075 -4.112475,2.37472 -3.217132,-0.0634 -6.753463,-0.18917 -9.793458,1.04648 -1.065794,0.43321 -2.634061,1.364 -2.721983,2.66319 -0.15675,2.31632 2.765698,1.72114 4.044899,1.3611 3.19928,-0.90043 11.752472,-2.56267 13.402492,1.55421 0.700927,1.74885 -0.332594,3.52392 -2.025611,4.19025 -3.158374,1.24308 -7.449286,0.55572 -10.847714,1.49177 -1.67476,0.46129 -3.99462,2.71663 -1.558714,4.05531 2.728346,1.49939 6.602301,-2.33448 9.422518,-0.21375 2.022834,1.5211 -0.416762,3.99374 -1.778589,4.87968 -2.834444,1.84394 -6.244556,2.29298 -9.523781,2.56825 -12.481416,1.04773 -24.280667,-6.88743 -24.861437,-20.15038 -0.454506,-10.37947 3.144797,-20.4263 9.097704,-28.83958 1.577116,-2.22895 3.274259,-4.39305 5.183259,-6.35 1.223294,-1.25403 3.069313,-2.54523 3.691716,-4.23334 0.981093,-2.66096 0.542764,-6.42598 0.846217,-9.26041 0.683881,-6.38776 1.670522,-12.810783 3.230326,-19.050001 1.953377,-7.813508 4.661505,-15.439367 9.080558,-22.224999 9.198106,-14.12404 24.952303,-23.589821 41.884804,-24.331249 19.33383,-0.846589 37.91881,6.504222 49.28618,22.743749 4.37264,6.246793 7.30526,13.320957 9.33903,20.637499 1.83637,6.606396 3.10841,13.547541 3.77154,20.372911 0.32938,3.39004 -0.21681,8.2037 1.07507,11.35341 0.55499,1.35313 2.19767,2.43655 3.1993,3.46326 1.76425,1.80843 3.4147,3.80122 4.93174,5.82083 5.45745,7.26542 9.34559,16.0201 9.86369,25.18035 0.31608,5.58837 -0.68642,11.43799 -3.95488,16.09465 -6.13245,8.7371 -18.86842,11.07985 -28.56376,7.55758 -2.07343,-0.75328 -6.24921,-2.50204 -5.02361,-5.42928 1.15442,-2.75718 6.62986,-0.96991 8.72778,-0.51141 1.24235,0.27153 2.99289,0.0335 2.99289,-1.62057 0,-1.56599 -1.73683,-2.25398 -2.99289,-2.60029 -3.21091,-0.88532 -6.63472,-0.47317 -9.78958,-1.24127 -1.99642,-0.48605 -3.26345,-2.6895 -2.29715,-4.61734 1.89283,-3.77637 9.74999,-2.33721 12.88048,-1.3072 1.35145,0.44466 3.91636,0.89222 3.99774,-1.34291 0.0595,-1.63488 -2.19166,-2.59703 -3.46857,-2.94065 -3.86847,-1.04099 -7.60777,-0.12735 -11.37607,-0.82375 -1.15427,-0.21333 -1.88727,-1.13824 -1.80614,-2.32082 0.15939,-2.32334 3.07144,-3.4667 4.98012,-3.98978 5.02412,-1.37685 10.71015,-0.87091 15.34584,1.55157 1.58608,0.82884 3.30745,3.07349 5.02687,3.35301 1.39552,0.22689 2.37024,-1.28776 1.80084,-2.5023 -0.69994,-1.49302 -2.48552,-2.96142 -3.9173,-3.70417"
       id="path3" /><path
       style="display:inline;fill:#ffffff;fill-opacity:1;stroke:none"
       d="m 158.22083,47.095838 c 3.76311,4.331179 4.12325,12.105705 1.20002,16.933333 -0.74263,1.226443 -2.66631,4.326786 -4.35114,4.202295 -0.99452,-0.07349 -1.77497,-1.652467 -2.31285,-2.350212 -1.88116,-2.440226 -4.14962,-4.63045 -5.91311,-7.14375 5.77303,-2.404229 8.10425,-6.776185 11.37708,-11.641666"
       id="path10" /><path
       style="display:inline;fill:#253129;stroke:none"
       d="m 96.572917,102.12917 c 0.321775,-1.55478 1.573588,-2.813993 2.283258,-4.233334 1.053917,-2.107834 1.764175,-4.523755 1.926395,-6.879167 0.22073,-3.205053 -0.32336,-6.590392 -1.6463,-9.524999 -0.754113,-1.672799 -2.235991,-3.23396 -2.563353,-5.027083 -1.862645,-0.522078 -3.544688,-2.792708 -5.291666,-3.80584 -3.933643,-2.281256 -8.817178,-2.79815 -13.229166,-1.895976 -16.712981,3.417524 -19.380381,26.556598 -5.291667,34.950719 5.43196,3.23639 12.438436,3.10245 17.991666,0.31869 1.99387,-0.99951 3.773122,-3.29136 5.820833,-3.90301"
       id="path452" /><path
       style="display:inline;fill:#253129;stroke:none"
       d="m 125.94167,70.491664 c -2.82331,0.384327 -5.51994,1.163882 -7.9375,2.718099 -2.20609,1.41826 -4.06928,3.187709 -5.53256,5.37149 -9.1291,13.62399 2.52922,31.428507 18.49714,29.326697 2.26601,-0.29827 4.3784,-1.17746 6.35,-2.30551 16.71322,-9.56245 8.15638,-37.769852 -11.37708,-35.110776"
       id="path458" /><path
       style="display:inline;fill:#ffffff;fill-opacity:1;stroke:none"
       d="m 80.962501,74.688048 c 15.00233,-1.788537 21.233129,19.60678 8.73125,27.108552 -1.592668,0.95569 -3.44895,1.60345 -5.291667,1.84351 -14.855625,1.93523 -23.381929,-18.245433 -10.318749,-26.622472 2.087881,-1.338904 4.434806,-2.038183 6.879166,-2.32959"
       id="path519" /><path
       style="display:inline;fill:#ffffff;fill-opacity:1;stroke:none"
       d="m 126.73542,74.688248 c 14.59348,-1.786632 20.94397,18.865078 9.26041,26.676382 -1.90502,1.27364 -4.08239,1.99766 -6.35,2.27631 -14.48592,1.78001 -22.27398,-18.024274 -10.05416,-26.35789 2.17259,-1.48166 4.5435,-2.276459 7.14375,-2.594802"
       id="path523" /><path
       style="display:inline;fill:#253129;stroke:none"
       d="m 84.931251,86.113513 c -8.103308,1.489654 -6.356605,14.450347 1.852083,12.941312 8.138481,-1.496113 6.334852,-14.44634 -1.852083,-12.941312"
       id="path643" /><path
       style="display:inline;fill:#253129;stroke:none"
       d="m 123.03125,86.113513 c -8.06298,1.482241 -6.26244,14.348377 1.85208,12.981313 8.30484,-1.39914 6.39499,-14.497403 -1.85208,-12.981313"
       id="path646" /><path
       style="display:inline;fill:#ffffff;fill-opacity:1;stroke:none"
       d="m 85.195834,118.26876 c -0.416463,1.7574 -2.245583,7.74896 -4.762298,7.20949 -2.195085,-0.47053 -3.207959,-4.29418 -3.54145,-6.15116 -0.130289,-0.72547 -0.419072,-2.10048 0.29806,-2.62806 1.303514,-0.95899 6.442549,1.24727 8.005688,1.56973"
       id="path1137" /><path
       style="display:inline;fill:#ffffff;fill-opacity:1;stroke:none"
       d="m 124.61875,118.26876 c 1.95854,-0.37982 3.88565,-0.87419 5.82083,-1.35639 0.60533,-0.15083 1.63735,-0.59501 2.2216,-0.19988 0.73139,0.49464 0.34354,1.92332 0.2113,2.6146 -0.37614,1.96628 -1.14848,5.19211 -3.22767,6.06255 -2.64804,1.10859 -4.62504,-5.38836 -5.02606,-7.12088"
       id="path1138" /><path
       style="display:inline;fill:#ffffff;fill-opacity:1;stroke:none"
       d="m 120.38542,121.70833 c 1.68389,5.32306 3.56985,11.05664 10.31875,11.1125 1.50882,6.35226 6.9548,7.67132 12.43541,5.82084 l 2.11667,8.73125 c -3.60527,0.85634 -7.63421,3.9589 -7.91178,7.9375 -0.12404,1.77789 1.27891,3.14896 1.24126,4.7625 -0.0232,0.99393 -1.02719,2.08998 -1.53157,2.91041 h -0.26458 c -0.34993,-1.21667 -1.67444,-1.87412 -2.64583,-2.61521 l -6.08542,-4.66083 c -2.91297,-2.24092 -5.8889,-4.43959 -8.73125,-6.76893 -1.02502,-0.84002 -2.54886,-2.46158 -3.96875,-2.48984 -2.23573,-0.0445 -3.79237,4.11283 -4.77577,5.6869 -4.01137,6.42081 -8.6903,12.98412 -11.892976,19.84375 -2.566623,-1.08503 -4.957393,-3.36291 -7.14375,-5.08283 -0.81887,-0.64415 -2.064247,-2.06193 -3.240128,-1.73775 -1.815587,0.50053 -3.145222,3.76853 -4.08675,5.23308 -2.927639,4.55395 -5.681073,9.22634 -8.639169,13.75833 -1.279645,1.9605 -2.582424,4.53511 -0.377892,6.53027 1.163778,1.05324 3.104123,0.21806 4.43769,-0.088 3.885235,-0.89163 7.774476,-1.8048 11.641666,-2.7716 16.173249,-4.04329 33.060689,-6.56139 48.947909,-11.60817 l 2.64584,5.02708 c -5.64352,0.24608 -11.69079,2.5326 -17.19792,3.79644 -11.82337,2.71337 -23.61206,5.59201 -35.454163,8.22209 -4.244532,0.94269 -8.462661,1.99801 -12.699999,2.97045 -2.03694,0.46746 -4.05442,1.1061 -5.793065,-0.49631 -2.500598,-2.30465 -2.818909,-8.36759 -3.632918,-11.58225 -0.304164,-1.20122 -0.955723,-2.71947 -0.795389,-3.96875 0.393137,-3.06315 2.177419,-4.28566 1.225539,-7.67292 3.126384,-1.85234 5.846615,-4.79457 4.781693,-8.73125 -0.376641,-1.39231 -1.589414,-2.59128 -1.840246,-3.96875 -0.294661,-1.61813 1.249665,-3.17685 0.903586,-5.02708 -1.13005,-6.04159 -8.04392,-8.09216 -13.370032,-8.20208 -0.660748,-3.20123 -2.725593,-7.40083 -0.161279,-10.26976 1.390088,-1.55522 3.526779,-1.8525 5.452945,-2.27794 3.706613,-0.8187 7.412943,-1.65147 11.112499,-2.50211 14.914569,-3.4293 30.180129,-5.99216 44.979169,-9.82103"
       id="path1180" /><path
       style="display:inline;fill:#253129;stroke:none"
       d="m 82.285418,142.48282 c -9.767621,2.08014 -7.201167,17.66123 2.645833,15.56102 9.754677,-2.08052 7.188191,-17.65528 -2.645833,-15.56102"
       id="path1419" /></g></svg>
